<?xml version="1.0" encoding="utf-8"?>
<!-- Generator: Adobe Illustrator 25.2.0, SVG Export Plug-In . SVG Version: 6.00 Build 0)  -->
<svg version="1.1" id="Layer_1" xmlns="http://www.w3.org/2000/svg" xmlns:xlink="http://www.w3.org/1999/xlink" x="0px" y="0px"
	 viewBox="0 0 166.9 69.5" style="enable-background:new 0 0 166.9 69.5;" xml:space="preserve">
<style type="text/css">
	.st0{fill:#CCA025;}
</style>
<g>
	<g>
		<path class="st0" d="M49.3,37c1.4,0.7,2.7,1,4.1,1h0.3c5.4-0.3,10.5-2,13.9-6.4c3.1-4.1,4.4-10.2,10.5-9.8h0.3h0.3
			c1,0,1-1.4,0-1.4C74.4,20,70,20,66.6,22.8c-3.4,2.7-4.7,6.8-6.8,10.2c-2.4,3.7-7.8,5.1-11.5,1.7c-2-1.7-0.3-4.7,1.4-5.8
			c1-0.7,2.4-0.7,3.4,0c1.7,1.4,0,4.4-1.7,2.4c-0.7-0.7-1.7,0.3-1,1c1.7,2,4.1,1.4,4.7-1c0.7-2.4-1.7-4.4-3.7-4.4
			c-2.7,0-4.7,2.4-5.1,4.7C45.2,34.3,47.2,36,49.3,37z M62.1,31.2c1.7-3.1,3.1-6.1,6.1-8.1c1.7-1,3.4-1.7,5.1-1.7
			c-2,1.4-3.4,3.7-4.7,6.1c-1.4,2.7-3.1,4.7-5.8,6.4c-1,0.7-2.4,1-3.7,1.7C60.5,34.6,61.5,32.9,62.1,31.2z"/>
	</g>
	<g>
		<path class="st0" d="M63.2,16.7c2.4,1.4,4.7,1,7.5,1l0,0c0,0,0,0,0.3,0l0,0l0,0l0,0l0,0l0,0v-0.3l0,0l0,0c0,0,0-0.3-0.3-0.3
			c-1.7-1-2.4-3.1-4.1-4.4c-2-1.7-4.4-2.4-6.8-2.7c-0.7,0-1,0.3-1,1C59.8,12.9,60.8,15.3,63.2,16.7z M68.6,16.7
			c-1.4,0-3.1,0-4.4-0.7c-2-1-3.1-2.7-3.4-4.7c2,0.3,4.1,1.4,5.8,2.7C67.2,14.6,67.9,15.6,68.6,16.7z"/>
	</g>
	<g>
		<path class="st0" d="M79.1,18h0.3l0,0l0,0c0.3,0,0.3-0.3,0.3-0.7l0,0l0,0l0,0l0,0l0,0c-1.7-2-1.7-5.1-3.4-7.5
			c-1.7-2.4-4.1-4.1-6.4-5.1c-0.3-0.3-1,0-1,0.3c-0.7,3.1-0.3,6.4,2,9.2C73.3,16.3,76.1,17,79.1,18z M70.3,5.8
			c2.4,1.4,4.4,3.1,5.8,5.4c0.7,1.7,1,3.1,1.7,4.7c-1.7-0.7-3.4-1-5.1-2.4C70.6,11.6,70,8.8,70.3,5.8z"/>
	</g>
	<g>
		<path class="st0" d="M73.3,28.2c-0.3,1.4,0,2.4,0.7,3.4c0.3,0.7,1.7,0,1.4-0.7c-2.7-5.1,6.1-5.4,4.7-0.7c-1,3.7-5.4,5.1-8.8,6.1
			c-3.1,1-6.4,1.4-9.5,2.7c-4.7,1.7-12.9,5.8-11.2,12.2c0.7,2.7,4.4,3.7,7.1,3.1h0.3c0.3,0,0.3,0,0.7-0.3c2-1,3.4-3.4,1.7-5.4
			c-0.7-0.7-1.4-1-2.4-0.7c-2,1-0.3,3.4-1,5.1c-1.7,0.3-3.4,0-4.4-1C51,50.6,52,47.9,53,46.5c2-2.7,5.8-4.7,8.8-5.8
			c3.1-1.4,6.1-1.7,9.2-2.7c3.1-0.7,6.8-2,9.2-4.4c1.4-1.7,2.4-4.1,1.4-6.1C79.8,24.5,74.4,25.1,73.3,28.2z M58.8,48.9
			c0.3-0.3,0.7,0.7,0.7,0.7c0.3,0.7,0,1.7-0.7,2c0,0,0,0-0.3,0l0,0C58.8,50.9,58.1,49.9,58.8,48.9z"/>
	</g>
	<g>
		<path class="st0" d="M50.6,40.1C51,39.7,51,39.7,50.6,40.1c0-1-1-1-1.4-0.3c-6.1,3.1-15.6,2.7-17.3,10.5c0,0.7,0.7,1.4,1,0.7
			c3.4-2.4,7.5-2.4,11.2-3.4c3.7-1,5.8-3.4,6.4-7.1C51,40.1,51,40.1,50.6,40.1z M42.1,46.5c-2.7,0.7-5.4,0.7-7.8,2
			c2.7-5.1,9.8-5.4,14.9-7.5C48.2,44.5,45.5,45.8,42.1,46.5z"/>
	</g>
	<g>
		<path class="st0" d="M45.9,51.6c-0.3,0.3-0.3,1-0.7,1.4c0,0.3-0.3,0.3-0.3,0.7c-4.1,5.1-12.6,2.7-17.6,0
			c-5.8-3.1-13.2-7.5-19.3-3.1l0,0l-0.3,0.3c-2.7,2-5.1,6.1-3.7,9.5c1,3.1,5.4,5.8,8.8,4.7c2.7-0.7,3.7-4.4,3.1-6.8
			C15,56,11.9,55.3,10.2,57c-1,1-1,2-0.3,3.4c0.3,0.7,0.7,1.4,1,2c0,0.3,0.3,1,0,1.4c0,0.3,0,0-0.3,0c0,0,0,0-0.3,0
			c-2.4-0.3-4.7-2.4-5.1-4.7c-0.7-2.4,1.4-4.7,2.7-6.4c0.3-0.3,0.7-0.7,1.4-1c7.8-1.4,12.6,5.1,19,8.1c7.1,3.1,14.9,0.3,19-6.1v-0.3
			c0.3-0.3,0.3-0.7,0.7-1.4C47.6,50.9,46.2,50.6,45.9,51.6z M11.6,57.4c2-0.7,2.7,1,2.7,2.7s-1,3.1-2.4,3.7c0-1,0-1.7-0.3-2.4
			C10.9,59.7,9.9,58,11.6,57.4z M25.2,56.7c-2.7-1.7-5.1-3.7-7.8-5.1c-1.7-1-3.4-1.4-5.4-1.4c0.3,0,0.7,0,1,0
			c3.7-0.3,7.5,1.4,10.5,3.1c3.1,1.4,5.8,3.1,8.8,4.1c2.7,0.7,5.8,1,8.5,0.3c-1.4,1-3.1,1.7-4.7,2C32.3,60.1,28.2,58.7,25.2,56.7z"
			/>
	</g>
	<g>
		<path class="st0" d="M113.4,36.3c-2.4,0-4.4-1.4-5.8-3.4c-2.4-3.4-3.7-7.5-7.1-10.5c-3.4-3.1-8.1-3.1-12.6-2.7c-1,0-1,1.4,0,1.4
			h0.3h0.3c6.1-0.3,7.5,5.8,10.5,9.8c3.1,4.4,8.5,6.1,13.9,6.4c0.3,0,0.3,0,0.3,0c1.4,0,2.7-0.3,4.1-0.7c2-1,4.1-2.7,3.7-5.1
			c-0.3-2.4-2.7-4.7-4.7-5.1c-2.4-0.3-4.7,1.7-4.4,4.1c0.3,2.7,3.4,3.1,4.7,1.4c0.7-0.7-0.3-1.7-1-1c-1.7,2-3.1-0.3-2-2
			c0.7-1.4,2-1,3.1-0.7c2.4,0.7,3.7,3.7,2.4,5.8C117.8,36,115.1,36.3,113.4,36.3z M98.5,27.8c-1.4-2.4-2.7-4.7-4.7-6.1
			c1.7,0.3,3.1,0.7,4.7,1.4c3.1,1.7,4.7,5.1,6.1,7.8c1,1.7,2,3.4,3.4,4.7c-1.4-0.3-2.4-0.7-3.7-1.4C101.5,32.6,99.8,30.2,98.5,27.8z
			"/>
	</g>
	<g>
		<path class="st0" d="M96.1,16.3C96.1,16.7,96.1,16.7,96.1,16.3c-0.3,0.3-0.3,0.3-0.3,0.3l0,0V17l0,0l0,0l0,0l0,0l0,0
			c0,0,0,0,0.3,0l0,0c2.7,0,5.1,0.3,7.5-1c2.4-1.4,3.7-4.1,4.1-6.4c0-0.7-0.3-1-1-1c-2.4,0.3-4.4,1-6.4,2.7
			C98.8,13.3,98.1,15.3,96.1,16.3z M100.1,13.9c1.4-1.7,3.7-2.7,5.8-3.1c-0.7,2-1.7,3.7-3.4,4.7c-1.4,0.7-3.1,0.7-4.4,0.7
			C99.1,15.6,99.5,14.6,100.1,13.9z"/>
	</g>
	<g>
		<path class="st0" d="M86.9,17.3c0,0.3,0.3,0.3,0.3,0.7l0,0l0,0h0.3c3.1-1,5.8-1.4,7.8-4.1c2.4-2.7,2.7-6.1,2-9.5
			c0-0.3-0.7-0.7-1-0.3C94,5.5,91.7,7.2,90,9.2c-1.7,2.4-1.7,5.4-3.4,7.5l0,0l0,0C86.9,17,86.9,17,86.9,17.3L86.9,17.3L86.9,17.3z
			 M91,11.6c1-2.4,3.4-4.1,5.8-5.4c0.3,2.7-0.3,5.4-2,7.5c-1.4,1.7-3.4,2.4-5.4,2.7C90,14.6,90.3,12.9,91,11.6z"/>
	</g>
	<g>
		<path class="st0" d="M98.5,37c-3.4-0.7-8.1-1.7-10.5-4.7c-1.4-1.7-2-4.7,0.7-5.4c1-0.3,2,0,3.1,0.7c1.4,0.7,0.7,2.4,0.3,3.7
			c-0.3,0.7,0.7,1.7,1.4,0.7c1-1.7,1.4-3.7-0.3-5.1c-1.4-1-3.1-1.4-4.7-1c-1.7,0.3-2.7,2-2.7,3.7c0,2.7,2.4,5.1,4.7,6.4
			c3.4,1.7,7.1,2.4,10.5,3.4c3.1,0.7,5.8,1.7,8.8,3.4c2.7,1.7,6.4,4.1,6.1,7.8c-0.3,2.7-3.1,3.1-5.4,2.4c-0.3-1.4,0.3-2.7-0.3-4.1
			c-0.3-0.7-1.4-1.4-2-0.7c-1.7,1-1.7,3.7-0.7,5.1c0.7,0.7,1.4,1,2,1.4h0.3c2,0.7,4.4,0,6.1-1.4c2.4-1.7,1.4-5.8-0.3-7.5
			C111,40.4,104.2,38.7,98.5,37z M108,49.2c0.7-1,0.7,2,0.3,2.4c0,0.3,0,0.3,0,0.7C107.3,51.3,106.9,50.2,108,49.2z"/>
	</g>
	<g>
		<path class="st0" d="M133.7,50.9c0.7,0.3,1-0.3,1-0.7c-1.7-8.1-11.5-7.5-17.3-10.5c-0.3-0.7-1.4-0.3-1.4,0.3l0,0v0.3
			c0.7,3.7,2.7,6.1,6.4,7.1C126.3,48.5,130.7,48.5,133.7,50.9z M117.8,41.1c5.1,2,12.2,2.4,14.9,7.5c-2.4-1-5.1-1.4-7.8-2
			C121.5,45.8,118.8,44.5,117.8,41.1z"/>
	</g>
	<g>
		<path class="st0" d="M158.5,51.6c2,1.7,3.7,4.4,3.7,6.8c0,2.4-2.7,4.4-4.7,5.1h-0.3c0,0,0,0-0.3,0s-0.3,0-0.7,0c0.3-0.3,0-0.7,0-1
			c0-0.7,0.3-1.4,0.7-1.7c0.3-1,1-2,0.7-3.1c-0.7-2-4.4-2.7-5.8-0.7c-1.4,2-1,5.4,1,7.1c3.1,3.1,7.5,0.3,9.5-2.4
			c2.4-3.1,1-6.4-1-9.2c-0.7-0.7-1.4-1.4-2-2l-0.3-0.3c-2-1.4-4.1-2-6.8-1.7c-7.1,0.7-12.9,6.4-20,7.8c-4.4,0.7-9.2,0-11.2-4.4
			c-0.3-0.7-1.7-0.3-1.4,0.3c0.3,0.3,0.3,1,0.7,1.4V54c4.1,6.4,11.5,9.2,19,6.1C145.9,57,150.4,50.2,158.5,51.6z M152.7,60.4
			c-0.3-1.4,0.3-3.4,2.4-3.1c2.4,0.3,1.4,2,0.7,3.4c-0.3,1-0.7,1.7-0.7,2.7C153.8,63.1,152.7,61.8,152.7,60.4z M132,59.4
			c-2-0.3-4.1-1-5.8-2c2.7,0.7,5.8,0.3,8.5-0.3c6.8-1.7,12.6-7.8,19.7-7.1c0.3,0,0.7,0,1,0c-1.7,0-3.4,0.7-5.1,1.4
			c-3.1,1.4-5.4,3.4-7.8,5.1C139.2,58.4,135.8,59.7,132,59.4z"/>
	</g>
	<g>
		<circle class="st0" cx="83.5" cy="8.2" r="2"/>
	</g>
</g>
</svg>
