<?xml version="1.0" encoding="utf-8"?>
<!-- Generator: Adobe Illustrator 25.2.0, SVG Export Plug-In . SVG Version: 6.00 Build 0)  -->
<svg version="1.1" id="Layer_1" xmlns="http://www.w3.org/2000/svg" xmlns:xlink="http://www.w3.org/1999/xlink" x="0px" y="0px"
	 viewBox="0 0 166.9 69.5" style="enable-background:new 0 0 166.9 69.5;" xml:space="preserve">
<style type="text/css">
	.st0{fill:#CCA025;}
</style>
<g>
	<g>
		<path class="st0" d="M117.6,32.4c-1.4-0.7-2.7-1-4.1-1h-0.3c-5.4,0.3-10.5,2-13.9,6.4c-3.1,4.1-4.4,10.2-10.5,9.8h-0.3h-0.3
			c-1,0-1,1.4,0,1.4c4.4,0.3,8.8,0.3,12.2-2.4c3.4-2.7,4.7-6.8,6.8-10.2c2.4-3.7,7.8-5.1,11.5-1.7c2,1.7,0.3,4.7-1.4,5.8
			c-1,0.7-2.4,0.7-3.4,0c-1.7-1.4,0-4.4,1.7-2.4c0.7,0.7,1.7-0.3,1-1c-1.7-2-4.1-1.4-4.7,1c-0.7,2.4,1.7,4.4,3.7,4.4
			c2.7,0,4.7-2.4,5.1-4.7C121.7,35.2,119.7,33.5,117.6,32.4z M104.7,38.2c-1.7,3.1-3.1,6.1-6.1,8.1c-1.7,1-3.4,1.7-5.1,1.7
			c2-1.4,3.4-3.7,4.7-6.1c1.4-2.7,3.1-4.7,5.8-6.4c1-0.7,2.4-1,3.7-1.7C106.4,34.8,105.4,36.5,104.7,38.2z"/>
	</g>
	<g>
		<path class="st0" d="M103.7,52.8c-2.4-1.4-4.7-1-7.5-1l0,0c0,0,0,0-0.3,0l0,0l0,0l0,0l0,0l0,0v0.3l0,0l0,0c0,0,0,0.3,0.3,0.3
			c1.7,1,2.4,3.1,4.1,4.4c2,1.7,4.4,2.4,6.8,2.7c0.7,0,1-0.3,1-1C107.1,56.5,106.1,54.2,103.7,52.8z M98.3,52.8c1.4,0,3.1,0,4.4,0.7
			c2,1,3.1,2.7,3.4,4.7c-2-0.3-4.1-1.4-5.8-2.7C99.7,54.8,99,53.8,98.3,52.8z"/>
	</g>
	<g>
		<path class="st0" d="M87.8,51.4h-0.3l0,0l0,0c-0.3,0-0.3,0.3-0.3,0.7l0,0l0,0l0,0l0,0l0,0c1.7,2,1.7,5.1,3.4,7.5
			c1.7,2.4,4.1,4.1,6.4,5.1c0.3,0.3,1,0,1-0.3c0.7-3.1,0.3-6.4-2-9.2C93.5,53.1,90.8,52.5,87.8,51.4z M96.6,63.7
			c-2.4-1.4-4.4-3.1-5.8-5.4c-0.7-1.7-1-3.1-1.7-4.7c1.7,0.7,3.4,1,5.1,2.4C96.3,57.9,96.9,60.6,96.6,63.7z"/>
	</g>
	<g>
		<path class="st0" d="M93.5,41.3c0.3-1.4,0-2.4-0.7-3.4c-0.3-0.7-1.7,0-1.4,0.7c2.7,5.1-6.1,5.4-4.7,0.7c1-3.7,5.4-5.1,8.8-6.1
			c3.1-1,6.4-1.4,9.5-2.7c4.7-1.7,12.9-5.8,11.2-12.2c-0.7-2.7-4.4-3.7-7.1-3.1h-0.3c-0.3,0-0.3,0-0.7,0.3c-2,1-3.4,3.4-1.7,5.4
			c0.7,0.7,1.4,1,2.4,0.7c2-1,0.3-3.4,1-5.1c1.7-0.3,3.4,0,4.4,1c1.7,1.4,0.7,4.1-0.3,5.4c-2,2.7-5.8,4.7-8.8,5.8
			c-3.1,1.4-6.1,1.7-9.2,2.7c-3.1,0.7-6.8,2-9.2,4.4c-1.4,1.7-2.4,4.1-1.4,6.1C87.1,45,92.5,44.3,93.5,41.3z M108.1,20.6
			c-0.3,0.3-0.7-0.7-0.7-0.7c-0.3-0.7,0-1.7,0.7-2c0,0,0,0,0.3,0l0,0C108.1,18.5,108.8,19.6,108.1,20.6z"/>
	</g>
	<g>
		<path class="st0" d="M116.3,29.4C115.9,29.7,115.9,29.7,116.3,29.4c0,1,1,1,1.4,0.3c6.1-3.1,15.6-2.7,17.3-10.5
			c0-0.7-0.7-1.4-1-0.7c-3.4,2.4-7.5,2.4-11.2,3.4c-3.7,1-5.8,3.4-6.4,7.1C115.9,29.4,115.9,29.4,116.3,29.4z M124.8,22.9
			c2.7-0.7,5.4-0.7,7.8-2c-2.7,5.1-9.8,5.4-14.9,7.5C118.7,25,121.4,23.6,124.8,22.9z"/>
	</g>
	<g>
		<path class="st0" d="M121,17.9c0.3-0.3,0.3-1,0.7-1.4c0-0.3,0.3-0.3,0.3-0.7c4.1-5.1,12.6-2.7,17.6,0c5.8,3.1,13.2,7.5,19.3,3.1
			l0,0l0.3-0.3c2.7-2,5.1-6.1,3.7-9.5c-1-3.1-5.4-5.8-8.8-4.7c-2.7,0.7-3.7,4.4-3.1,6.8s3.7,3.1,5.4,1.4c1-1,1-2,0.3-3.4
			c-0.3-0.7-0.7-1.4-1-2c0-0.3-0.3-1,0-1.4c0-0.3,0,0,0.3,0c0,0,0,0,0.3,0c2.4,0.3,4.7,2.4,5.1,4.7c0.7,2.4-1.4,4.7-2.7,6.4
			c-0.3,0.3-0.7,0.7-1.4,1c-7.8,1.4-12.6-5.1-19-8.1c-7.1-3.1-14.9-0.3-19,6.1v0.3c-0.3,0.3-0.3,0.7-0.7,1.4
			C119.3,18.5,120.7,18.9,121,17.9z M155.3,12.1c-2,0.7-2.7-1-2.7-2.7s1-3.1,2.4-3.7c0,1,0,1.7,0.3,2.4C156,9.7,157,11.4,155.3,12.1
			z M141.7,12.8c2.7,1.7,5.1,3.7,7.8,5.1c1.7,1,3.4,1.4,5.4,1.4c-0.3,0-0.7,0-1,0c-3.7,0.3-7.5-1.4-10.5-3.1
			c-3.1-1.4-5.8-3.1-8.8-4.1c-2.7-0.7-5.8-1-8.5-0.3c1.4-1,3.1-1.7,4.7-2C134.6,9.4,138.7,10.7,141.7,12.8z"/>
	</g>
	<g>
		<path class="st0" d="M53.5,33.1c2.4,0,4.4,1.4,5.8,3.4C61.7,39.9,63,44,66.4,47c3.4,3.1,8.1,3.1,12.6,2.7c1,0,1-1.4,0-1.4h-0.3
			h-0.3c-6.1,0.3-7.5-5.8-10.5-9.8c-3.1-4.4-8.5-6.1-13.9-6.4c-0.3,0-0.3,0-0.3,0c-1.4,0-2.7,0.3-4.1,0.7c-2,1-4.1,2.7-3.7,5.1
			c0.3,2.4,2.7,4.7,4.7,5.1c2.4,0.3,4.7-1.7,4.4-4.1c-0.3-2.7-3.4-3.1-4.7-1.4c-0.7,0.7,0.3,1.7,1,1c1.7-2,3.1,0.3,2,2
			c-0.7,1.4-2,1-3.1,0.7c-2.4-0.7-3.7-3.7-2.4-5.8C49.1,33.5,51.8,33.1,53.5,33.1z M68.4,41.6c1.4,2.4,2.7,4.7,4.7,6.1
			c-1.7-0.3-3.1-0.7-4.7-1.4c-3.1-1.7-4.7-5.1-6.1-7.8c-1-1.7-2-3.4-3.4-4.7c1.4,0.3,2.4,0.7,3.7,1.4C65.4,36.9,67.1,39.2,68.4,41.6
			z"/>
	</g>
	<g>
		<path class="st0" d="M70.8,53.1C70.8,52.8,70.8,52.8,70.8,53.1c0.3-0.3,0.3-0.3,0.3-0.3l0,0v-0.3l0,0l0,0l0,0l0,0l0,0
			c0,0,0,0-0.3,0l0,0c-2.7,0-5.1-0.3-7.5,1c-2.4,1.4-3.7,4.1-4.1,6.4c0,0.7,0.3,1,1,1c2.4-0.3,4.4-1,6.4-2.7
			C68.1,56.2,68.8,54.2,70.8,53.1z M66.7,55.5c-1.4,1.7-3.7,2.7-5.8,3.1c0.7-2,1.7-3.7,3.4-4.7c1.4-0.7,3.1-0.7,4.4-0.7
			C67.8,53.8,67.4,54.8,66.7,55.5z"/>
	</g>
	<g>
		<path class="st0" d="M80,52.1c0-0.3-0.3-0.3-0.3-0.7l0,0l0,0h-0.3c-3.1,1-5.8,1.4-7.8,4.1c-2.4,2.7-2.7,6.1-2,9.5
			c0,0.3,0.7,0.7,1,0.3c2.4-1.4,4.7-3.1,6.4-5.1c1.7-2.4,1.7-5.4,3.4-7.5l0,0l0,0C80,52.5,80,52.5,80,52.1L80,52.1L80,52.1z
			 M75.9,57.9c-1,2.4-3.4,4.1-5.8,5.4c-0.3-2.7,0.3-5.4,2-7.5c1.4-1.7,3.4-2.4,5.4-2.7C76.9,54.8,76.6,56.5,75.9,57.9z"/>
	</g>
	<g>
		<path class="st0" d="M68.4,32.4c3.4,0.7,8.1,1.7,10.5,4.7c1.4,1.7,2,4.7-0.7,5.4c-1,0.3-2,0-3.1-0.7c-1.4-0.7-0.7-2.4-0.3-3.7
			c0.3-0.7-0.7-1.7-1.4-0.7c-1,1.7-1.4,3.7,0.3,5.1c1.4,1,3.1,1.4,4.7,1c1.7-0.3,2.7-2,2.7-3.7c0-2.7-2.4-5.1-4.7-6.4
			c-3.4-1.7-7.1-2.4-10.5-3.4c-3.1-0.7-5.8-1.7-8.8-3.4c-2.7-1.7-6.4-4.1-6.1-7.8c0.3-2.7,3.1-3.1,5.4-2.4c0.3,1.4-0.3,2.7,0.3,4.1
			c0.3,0.7,1.4,1.4,2,0.7c1.7-1,1.7-3.7,0.7-5.1c-0.7-0.7-1.4-1-2-1.4h-0.3c-2-0.7-4.4,0-6.1,1.4c-2.4,1.7-1.4,5.8,0.3,7.5
			C55.9,29.1,62.7,30.8,68.4,32.4z M58.9,20.2c-0.7,1-0.7-2-0.3-2.4c0-0.3,0-0.3,0-0.7C59.6,18.2,60,19.2,58.9,20.2z"/>
	</g>
	<g>
		<path class="st0" d="M33.2,18.5c-0.7-0.3-1,0.3-1,0.7c1.7,8.1,11.5,7.5,17.3,10.5c0.3,0.7,1.4,0.3,1.4-0.3l0,0v-0.3
			c-0.7-3.7-2.7-6.1-6.4-7.1C40.6,20.9,36.2,20.9,33.2,18.5z M49.1,28.4c-5.1-2-12.2-2.4-14.9-7.5c2.4,1,5.1,1.4,7.8,2
			C45.4,23.6,48.1,25,49.1,28.4z"/>
	</g>
	<g>
		<path class="st0" d="M8.4,17.9c-2-1.7-3.7-4.4-3.7-6.8S7.4,6.7,9.4,6h0.3c0,0,0,0,0.3,0s0.3,0,0.7,0c-0.3,0.3,0,0.7,0,1
			c0,0.7-0.3,1.4-0.7,1.7c-0.3,1-1,2-0.7,3.1c0.7,2,4.4,2.7,5.8,0.7c1.4-2,1-5.4-1-7.1C11.1,2.3,6.7,5,4.7,7.7c-2.4,3.1-1,6.4,1,9.2
			c0.7,0.7,1.4,1.4,2,2l0.3,0.3c2,1.4,4.1,2,6.8,1.7c7.1-0.7,12.9-6.4,20-7.8c4.4-0.7,9.2,0,11.2,4.4c0.3,0.7,1.7,0.3,1.4-0.3
			c-0.3-0.3-0.3-1-0.7-1.4v-0.3c-4.1-6.4-11.5-9.2-19-6.1C20.9,12.4,16.5,19.2,8.4,17.9z M14.2,9c0.3,1.4-0.3,3.4-2.4,3.1
			c-2.4-0.3-1.4-2-0.7-3.4c0.3-1,0.7-1.7,0.7-2.7C13.1,6.3,14.2,7.7,14.2,9z M34.9,10.1c2,0.3,4.1,1,5.8,2c-2.7-0.7-5.8-0.3-8.5,0.3
			c-6.8,1.7-12.6,7.8-19.7,7.1c-0.3,0-0.7,0-1,0c1.7,0,3.4-0.7,5.1-1.4c3.1-1.4,5.4-3.4,7.8-5.1C27.7,11.1,31.1,9.7,34.9,10.1z"/>
	</g>
	<g>
		<circle class="st0" cx="83.4" cy="61.3" r="2"/>
	</g>
</g>
</svg>
