<?xml version="1.0" encoding="utf-8"?>
<!-- Generator: Adobe Illustrator 25.2.0, SVG Export Plug-In . SVG Version: 6.00 Build 0)  -->
<svg version="1.1" id="Layer_1" xmlns="http://www.w3.org/2000/svg" xmlns:xlink="http://www.w3.org/1999/xlink" x="0px" y="0px"
	 viewBox="0 0 345.4 229.2" style="enable-background:new 0 0 345.4 229.2;" xml:space="preserve">
<style type="text/css">
	.st0{fill:#CCA025;}
</style>
<g>
	<g>
		<g>
			<path class="st0" d="M96.4,221.9L86,221.5c-0.9,0-23-0.7-35.3-13.6c-3.4-3.6-5.8-7.9-7.1-12.8l-0.1-0.4l0.4,0
				c8-0.5,13.1-2.5,15.4-6c2.9-4.4,2.9-9,0.1-12.6c-2.8-3.6-7.8-5.2-12-3.8c-4.6,1.5-7.4,6.1-7.6,12.7c-0.1,2.4,0.1,4.6,0.4,6.8
				l0,0.4l-0.4,0c-9.9,0-22.1-2-30.2-3.9l-0.2-0.1l0-0.2c-0.9-29.8,4.3-56.2,13.9-70.8l0.2-0.3l0.3,0.3c0.7,0.8,1.3,1.5,1.9,2.1
				c4.3,4.5,9,6.7,13.9,6.7c1.3,0,5.8-0.3,8.9-3.4c1.9-1.9,3-4.5,3.1-7.6l0-0.1c0,0,0-0.1,0-0.1c0-0.1,0-0.1,0-0.2c0,0,0-0.1,0-0.1
				c0,0,0,0,0-0.1c-0.1-3.2-1.1-5.8-3.1-7.7c-3.3-3.2-8-3.4-8.9-3.5c0,0,0,0,0,0c-5,0-9.7,2.3-14,6.7c-0.6,0.6-1.2,1.3-1.9,2.1
				l-0.3,0.3l-0.2-0.3C13.8,97.5,8.6,71,9.5,41.2l0-0.2L9.7,41c8.1-1.9,20.3-3.9,30.2-3.9l0.4,0l0,0.4c-0.3,2.2-0.4,4.5-0.4,6.8
				c0.2,6.6,2.9,11.2,7.6,12.7c4.2,1.4,9.2-0.2,12-3.8c2.8-3.6,2.7-8.2-0.1-12.6c-2.2-3.5-7.4-5.5-15.4-6l-0.4,0l0.1-0.4
				c1.3-4.9,3.7-9.2,7.1-12.8C63.1,8.3,85.8,7.7,86,7.7l10.3-0.4c5.7,0,14.4,2.1,24.6,4.5l0.2,0c15.2,3.6,34.1,8,52.4,8
				c18.5,0,36.6-4.4,51-8c10-2.4,18.5-4.5,24.4-4.5l10.4,0.4c0.2,0,22.9,0.6,35.3,13.6c3.5,3.6,5.8,7.9,7.1,12.8l0.1,0.4l-0.4,0
				c-8,0.5-13.1,2.5-15.4,6c-2.9,4.4-2.9,9-0.1,12.6c2.8,3.6,7.8,5.2,12,3.8c4.6-1.5,7.4-6.2,7.5-12.7c0.1-2.3-0.1-4.6-0.4-6.8
				l0-0.4l0.4,0c9.9,0,22.1,2,30.2,3.9l0.2,0.1l0,0.2c0.9,29.8-4.3,56.2-13.9,70.8l-0.2,0.3l-0.3-0.3c-0.7-0.9-1.3-1.5-1.9-2.1
				c-4.3-4.5-9-6.7-13.9-6.7c0,0,0,0,0,0c-0.6,0-5.5,0.1-8.9,3.5c-1.9,1.9-3,4.5-3.1,7.6l0,0.1l0,0.2l0,0.2h0c0,0,0,0,0,0.1
				c0.1,3.2,1.1,5.7,3.1,7.6c3.4,3.4,8.3,3.5,8.9,3.5c5,0,9.7-2.3,14-6.7c0.6-0.6,1.2-1.3,1.9-2.1l0.3-0.3l0.2,0.3
				c9.6,14.5,14.8,41,13.9,70.8l0,0.2l-0.2,0.1c-8.1,1.9-20.3,3.9-30.2,3.9l-0.4,0l0-0.4c0.3-2.1,0.4-4.4,0.4-6.8
				c-0.2-6.6-2.9-11.2-7.5-12.7c-4.2-1.4-9.2,0.2-12,3.8c-2.8,3.6-2.7,8.2,0.1,12.6c2.3,3.5,7.4,5.5,15.4,6l0.4,0l-0.1,0.4
				c-1.3,4.9-3.6,9.2-7.1,12.8c-5.1,5.4-12.5,9.3-22,11.7c-7,1.7-12.7,2-13.3,2l-10.3,0.4c-27.7,0-62.6-17.8-75.3-30.5
				c-0.5-0.5-1.4-0.5-1.9,0C159.1,204.1,124.2,221.9,96.4,221.9z M44.2,195.3c1.3,4.6,3.6,8.7,6.9,12.2
				c12.2,12.8,34.7,13.5,34.9,13.5l10.4,0.4c27.7,0,62.4-17.7,75-30.3c0.7-0.7,2-0.7,2.7,0c12.7,12.7,47.3,30.3,74.9,30.3l10.3-0.4
				c1,0,22.9-0.9,34.9-13.5c3.3-3.5,5.6-7.5,6.9-12.2c-8-0.6-13.2-2.7-15.5-6.3c-3-4.7-3-9.5-0.1-13.3c2.9-3.8,8.2-5.5,12.6-4
				c4.9,1.6,7.8,6.4,8,13.3c0.1,2.3,0,4.5-0.3,6.6c9.7-0.1,21.5-2,29.5-3.8c0.8-29.3-4.3-55.4-13.6-69.9c-0.6,0.7-1.1,1.3-1.6,1.8
				c-4.4,4.6-9.3,6.9-14.4,6.9c-0.6,0-5.8-0.1-9.4-3.6c-2-2-3.1-4.7-3.2-8.1c0,0,0-0.1,0-0.1l0-0.2l0-0.3l0-0.1c0.1-3.3,1.2-6,3.2-8
				c3.6-3.5,8.8-3.6,9.4-3.6l0,0c5.1,0,9.9,2.3,14.4,6.9c0.5,0.5,1,1.1,1.6,1.8c9.4-14.5,14.4-40.5,13.6-69.8
				c-8-1.8-19.8-3.7-29.5-3.8c0.3,2.1,0.4,4.3,0.3,6.6c-0.2,6.9-3.1,11.7-8,13.3c-4.4,1.4-9.7-0.2-12.6-4c-2.9-3.8-2.9-8.7,0.1-13.3
				c2.3-3.6,7.5-5.7,15.5-6.3c-1.3-4.6-3.6-8.7-6.9-12.2C281.9,8.8,259.6,8.3,259.4,8.3L249,7.9c-5.8,0-14.4,2.1-24.2,4.5
				c-14.5,3.6-32.6,8-51.2,8c-18.4,0-37.3-4.5-52.5-8l-0.2,0c-10.1-2.4-18.9-4.4-24.5-4.4L86,8.3c-0.2,0-22.7,0.6-34.9,13.5
				c-3.3,3.4-5.6,7.5-6.9,12.2c8,0.6,13.2,2.7,15.5,6.3c3,4.7,3,9.5,0.1,13.3c-2.9,3.8-8.2,5.5-12.6,4c-4.9-1.6-7.8-6.4-8-13.3
				c-0.1-2.3,0-4.5,0.3-6.6c-9.7,0.1-21.5,2-29.5,3.8c-0.8,29.3,4.3,55.4,13.6,69.9c0.6-0.7,1.1-1.3,1.6-1.8
				c4.4-4.6,9.3-6.9,14.4-6.9c1,0,5.9,0.2,9.4,3.6c2,2,3.1,4.7,3.2,8.1c0,0,0,0.1,0,0.1c0,0,0,0.1,0,0.1c0,0,0,0.1,0,0.1
				c0,0.1,0,0.1,0,0.2l0,0.1c-0.1,3.3-1.2,6-3.2,8c-3.3,3.3-8,3.6-9.3,3.6c0,0,0,0,0,0c-5.1,0-10-2.3-14.4-6.9
				c-0.5-0.5-1.1-1.1-1.6-1.8c-9.4,14.5-14.4,40.5-13.6,69.9c7.9,1.8,19.7,3.7,29.5,3.8c-0.3-2.1-0.4-4.3-0.3-6.6
				c0.2-6.9,3.1-11.7,8-13.3c4.4-1.4,9.7,0.2,12.6,4c2.9,3.8,2.9,8.7-0.1,13.3C57.4,192.6,52.2,194.7,44.2,195.3z"/>
		</g>
		<g>
			<path class="st0" d="M96.3,225.1l-10.4-0.4c-1,0-24.2-0.7-37.6-14.6c-4-4.2-6.7-9.1-8-14.7c0,0-0.1,0-0.1,0
				c-14.2,0-30.5-3.8-32.4-4.3c-0.8-0.2-1.5-0.9-1.5-1.8c-1.1-31.5,4.5-59.4,15-74.7C10.7,99.3,5.1,71.4,6.3,39.9
				c0-0.9,0.6-1.6,1.5-1.8c3.1-0.7,19-4.4,32.5-4.3c1.4-5.6,4.1-10.5,8-14.7C61.7,5.1,84.9,4.5,85.9,4.4l10.3-0.4
				c6.1,0,15.2,2.1,25.6,4.6c15,3.5,33.7,8,51.7,8c18.1,0,35.9-4.4,50.2-7.9l0.1,0c10.1-2.5,18.8-4.6,25.2-4.6l10.4,0.4
				c1,0,24.2,0.7,37.6,14.6c4,4.2,6.7,9.1,8,14.7c0.2,0,0.3,0,0.5,0c13.6,0,29.1,3.6,32,4.3c0.8,0.2,1.4,0.9,1.5,1.8l0,0
				c1.1,31.5-4.5,59.4-15,74.7c10.5,15.3,16.1,43.2,15,74.7c0,0.9-0.6,1.6-1.5,1.8c-3,0.7-18.6,4.3-32,4.3h-0.5
				c-1.4,5.6-4.1,10.5-8,14.7c-13.4,14-36.6,14.6-37.6,14.6l-10.3,0.4c0,0,0,0,0,0c-28.6,0-62.5-17.4-76.3-30.2
				C159.3,207.4,124.6,225.1,96.3,225.1z M40.7,194.8l0.1,0.2c1.3,5.6,4,10.5,7.9,14.7c13.2,13.8,36.2,14.4,37.2,14.5l10.4,0.4
				c28.2,0,63-17.9,76.3-30.2l0.2-0.2l0.2,0.2c13.6,12.7,47.5,30.2,76.1,30.2c0,0,0,0,0,0l10.3-0.4c1,0,24-0.6,37.2-14.5
				c3.9-4.1,6.6-9.1,7.9-14.7l0.1-0.2h1c13.4,0,28.9-3.6,31.9-4.3c0.6-0.1,1-0.6,1-1.2c1.1-31.5-4.5-59.4-15-74.5l-0.1-0.2l0.1-0.2
				c10.5-15.2,16.1-43,15-74.5l0,0c0-0.6-0.4-1.1-1-1.2c-3-0.7-18.4-4.3-31.9-4.3c-0.2,0-0.5,0-0.7,0l-0.2,0l-0.1-0.2
				c-1.3-5.6-4-10.5-7.9-14.7C283.4,5.7,260.4,5.1,259.4,5L249,4.7c-6.3,0-15,2.1-25.1,4.6l-0.1,0c-14.3,3.5-32.2,7.9-50.4,7.9
				c-18,0-36.7-4.4-51.8-8c-10.4-2.5-19.4-4.6-25.5-4.6L85.9,5c-1,0-24,0.6-37.2,14.5c-3.9,4.1-6.6,9.1-7.9,14.7l-0.1,0.2l-0.2,0
				C27,34.2,11,37.9,7.9,38.7c-0.6,0.1-1,0.6-1,1.2c-1.1,31.5,4.5,59.4,15,74.5l0.1,0.2l-0.1,0.2c-10.5,15.2-16.1,43-15,74.5
				c0,0.6,0.4,1.1,1,1.2c1.8,0.4,18.5,4.3,32.6,4.3L40.7,194.8z"/>
		</g>
		<g>
			<path class="st0" d="M294.8,54.8c-2.5,0-5.1-1.2-6.7-3.3c-2.1-2.7-2-6.1,0.3-9.6c1.8-2.9,6.5-4.5,13.8-4.8l0.3,0l0,0.3
				c0.3,2.1,0.5,4.4,0.4,6.8v0c-0.1,5.5-2.2,9.1-5.7,10.3C296.4,54.7,295.6,54.8,294.8,54.8z M301.9,37.7c-6.9,0.4-11.3,1.9-13,4.5
				c-2.1,3.3-2.2,6.4-0.3,8.9c1.9,2.5,5.5,3.7,8.4,2.7c3.3-1.1,5.2-4.5,5.3-9.7C302.3,41.9,302.2,39.8,301.9,37.7z"/>
		</g>
		<g>
			<path class="st0" d="M50.5,54.8c-0.8,0-1.6-0.1-2.3-0.4c-3.5-1.2-5.6-4.8-5.7-10.3c-0.1-2.4,0.1-4.6,0.4-6.8l0-0.3l0.3,0
				c7.3,0.3,12,2,13.8,4.8c2.2,3.5,2.3,6.9,0.3,9.6C55.7,53.6,53.1,54.8,50.5,54.8z M43.4,37.7c-0.3,2-0.4,4.1-0.3,6.4
				c0.1,5.2,2,8.7,5.3,9.7c2.9,0.9,6.4-0.2,8.4-2.7c1.9-2.5,1.8-5.6-0.3-8.9C54.8,39.6,50.4,38.1,43.4,37.7z"/>
		</g>
		<g>
			<path class="st0" d="M42.9,192.1l0-0.3c-0.3-2.1-0.5-4.4-0.4-6.8v0c0.1-5.5,2.2-9.1,5.7-10.3c0.7-0.2,1.5-0.4,2.3-0.4
				c2.6,0,5.2,1.3,6.7,3.3c2.1,2.7,2,6.1-0.3,9.6c-1.8,2.9-6.5,4.5-13.8,4.8L42.9,192.1z M43.1,185.1c-0.1,2.2,0.1,4.4,0.3,6.4
				c6.9-0.4,11.3-1.9,13-4.5c2.1-3.3,2.2-6.4,0.3-8.9c-1.4-1.9-3.8-3-6.2-3c-0.8,0-1.5,0.1-2.1,0.3
				C45.1,176.4,43.2,179.9,43.1,185.1L43.1,185.1z"/>
		</g>
		<g>
			<path class="st0" d="M302.4,192.1l-0.3,0c-7.3-0.3-12-2-13.8-4.8c-2.2-3.5-2.3-6.9-0.3-9.6c1.6-2,4.1-3.3,6.7-3.3
				c0.8,0,1.6,0.1,2.3,0.4c3.5,1.2,5.6,4.8,5.7,10.3c0.1,2.3-0.1,4.6-0.4,6.8L302.4,192.1z M294.8,175c-2.4,0-4.8,1.2-6.2,3
				c-1.9,2.5-1.8,5.6,0.3,8.9c1.7,2.7,6.1,4.2,13,4.5c0.3-2,0.4-4.2,0.3-6.4c-0.1-5.2-2-8.7-5.3-9.7
				C296.3,175.1,295.6,175,294.8,175z"/>
		</g>
		<g>
			<path class="st0" d="M305.6,123.4c-0.2,0-4.4,0-7.1-2.7c-1.5-1.5-2.2-3.5-2.3-6c0-2.6,0.8-4.6,2.3-6.1c2.7-2.7,6.9-2.7,7.1-2.7
				c4.2,0,8.2,2,12,5.9c0.8,0.8,1.5,1.7,2.3,2.6l0.1,0.2l-0.1,0.2c-0.7,0.9-1.5,1.8-2.3,2.6C313.9,121.4,309.8,123.4,305.6,123.4z
				 M305.7,106.4c0,0-4.1,0-6.6,2.5c-1.3,1.3-2,3.2-2.1,5.6c0,2.4,0.7,4.3,2.1,5.6c2.5,2.5,6.6,2.5,6.6,2.5c4,0,7.9-1.9,11.6-5.7
				c0.7-0.8,1.4-1.6,2.1-2.4c-0.7-0.9-1.4-1.7-2.1-2.4C313.6,108.4,309.7,106.4,305.7,106.4z"/>
		</g>
		<g>
			<path class="st0" d="M40,123.4c-0.1,0-0.2,0-0.2,0v0c-4.2,0-8.2-2-12-5.9c-0.8-0.8-1.5-1.7-2.3-2.6l-0.1-0.2l0.1-0.2
				c0.7-0.9,1.5-1.8,2.3-2.6c3.8-3.9,7.9-5.9,12.1-5.9v0c0.7,0,4.6,0.2,7.1,2.7c1.5,1.5,2.2,3.5,2.3,6c0,2.6-0.8,4.6-2.3,6.1
				C44.5,122.9,41.1,123.4,40,123.4z M39.8,122.7c0.6,0,4.2-0.2,6.6-2.5c1.3-1.3,2-3.2,2.1-5.6c0-2.4-0.7-4.3-2.1-5.6
				c-2.1-2.1-5.3-2.5-6.3-2.5v0h-0.3c-4,0-7.9,1.9-11.6,5.7c-0.7,0.8-1.4,1.6-2.1,2.4c0.7,0.9,1.4,1.7,2.1,2.4
				C31.8,120.8,35.7,122.7,39.8,122.7L39.8,122.7z"/>
		</g>
	</g>
</g>
</svg>
