<svg xmlns="http://www.w3.org/2000/svg" viewBox="0 0 72.83 10.29"><defs><style>.cls-1{fill:#cca025;stroke:#cca025;stroke-miterlimit:10;stroke-width:0.5px;}</style></defs><g id="Layer_2" data-name="Layer 2"><g id="Layer_1-2" data-name="Layer 1"><path class="cls-1" d="M40.85,5.71a.32.32,0,0,1,.19.23.69.69,0,0,1-.06.45,1.2,1.2,0,0,1-.49.52,1.41,1.41,0,0,1-.84.18A1.56,1.56,0,0,1,39.11,7a2,2,0,0,1-.59-.36A2.43,2.43,0,0,1,38,6a2.56,2.56,0,0,1-.29-.66,2.61,2.61,0,0,1-.11-.64V4.45a1.66,1.66,0,0,1,0-.24,1.18,1.18,0,0,1,0-.2.57.57,0,0,1,0-.14c0-.08.05-.13.07-.13s.05,0,.08.12l.12.31.09.2.1.21a4.08,4.08,0,0,0,.28.44,2.38,2.38,0,0,0,.36.35,1.75,1.75,0,0,0,.38.23,1.21,1.21,0,0,0,.32.09h.21l.26,0a1.26,1.26,0,0,0,.27,0A1.14,1.14,0,0,1,40.85,5.71Z"/><path class="cls-1" d="M37.86,7.31a11.17,11.17,0,0,1-.7-3.15,0,0,0,0,0,0,0l-.52-.6a.17.17,0,0,0-.26,0l-.53.6s0,0,0,0a10.79,10.79,0,0,1-.69,3.15s1.07,1.94,1.32,2.35a.06.06,0,0,0,.1,0C36.78,9.25,37.86,7.32,37.86,7.31Z"/><path class="cls-1" d="M32.05,5.71a.31.31,0,0,0-.18.23.69.69,0,0,0,.06.45,1.23,1.23,0,0,0,.48.52,1.44,1.44,0,0,0,.85.18A1.56,1.56,0,0,0,33.8,7a2.18,2.18,0,0,0,.59-.36A2.64,2.64,0,0,0,34.87,6a3,3,0,0,0,.3-.66,3.13,3.13,0,0,0,.1-.64,2.72,2.72,0,0,0,0-.28c0-.09,0-.17,0-.24a1.77,1.77,0,0,1,0-.2s0-.1,0-.14-.06-.13-.08-.13-.05,0-.08.12l-.12.31c0,.06,0,.13-.08.2l-.11.21a3,3,0,0,1-.28.44,2.38,2.38,0,0,1-.36.35,1.49,1.49,0,0,1-.37.23,1.17,1.17,0,0,1-.33.09h-.21l-.26,0a1.17,1.17,0,0,1-.26,0A1.18,1.18,0,0,0,32.05,5.71Z"/><path class="cls-1" d="M71.7,3a2.21,2.21,0,0,1,.12.56,3.21,3.21,0,0,1,0,.69,3.41,3.41,0,0,1-.67,1.53,6.63,6.63,0,0,1-1.52,1.39,12.55,12.55,0,0,1-2,1.09A13.47,13.47,0,0,1,65.35,9a15.75,15.75,0,0,1-2.3.38,21.22,21.22,0,0,1-4-.06c-.55-.09-1.17-.22-1.84-.37s-1.36-.36-2.09-.59a33.19,33.19,0,0,1-4.39-1.79c-.71-.36-1.4-.73-2-1.12l-.48-.28-.46-.3-.88-.58C45.68,3.54,44.69,2.92,44,2.52a26.23,26.23,0,0,0-2.74-1.39A10,10,0,0,0,38.8.39a3.84,3.84,0,0,0-1,0,1.84,1.84,0,0,0-.42.09A1.66,1.66,0,0,0,37,.61a1.18,1.18,0,0,0-.36.33c-.06.1-.07.16,0,.17s.2-.13.54-.24a2.89,2.89,0,0,1,1.54,0A12.68,12.68,0,0,1,41,1.76c.84.39,1.73.88,2.66,1.41.68.4,1.67,1,2.82,1.71l.9.56a5.55,5.55,0,0,0,.48.29l.5.28c.67.37,1.39.73,2.13,1.07A31.2,31.2,0,0,0,55,8.73c.74.21,1.46.38,2.14.51s1.31.22,1.88.28a20.23,20.23,0,0,0,4.09.25,16.52,16.52,0,0,0,2.37-.3,14.25,14.25,0,0,0,2.37-.69A12,12,0,0,0,70,7.7,7.34,7.34,0,0,0,70.91,7a6.52,6.52,0,0,0,.78-.8,4,4,0,0,0,.85-1.85,3.69,3.69,0,0,0,0-.87,3,3,0,0,0-.16-.73,3.28,3.28,0,0,0-1-1.45,3.37,3.37,0,0,0-.69-.47A3.51,3.51,0,0,0,70,.56a3.3,3.3,0,0,0-.76-.1,2.53,2.53,0,0,0-.73.11,2,2,0,0,0-1.06.8,1.45,1.45,0,0,0-.24.54,1.22,1.22,0,0,0,0,.57.76.76,0,0,0,.32.4,1.21,1.21,0,0,0,.2.09h.18a.86.86,0,0,0,.29,0,.8.8,0,0,0,.2-.06c.1,0,.15-.08.14-.1s-.06,0-.16-.05h-.19l-.23,0-.06,0-.06,0a.26.26,0,0,1-.1-.07.41.41,0,0,1-.13-.23.94.94,0,0,1,.24-.69,1.49,1.49,0,0,1,.8-.5,2,2,0,0,1,.55,0,2.47,2.47,0,0,1,.58.11,2.75,2.75,0,0,1,.59.25,2.51,2.51,0,0,1,.54.38A2.64,2.64,0,0,1,71.7,3Z"/><path class="cls-1" d="M58.61,9.45l-.92.22-.5.09-.59.1-.69.09-.77.06h-.86a3.53,3.53,0,0,1-.46,0h-.48l-.24,0-.25,0-.51,0-.52-.08-.27,0-.26-.05-.55-.12a2.61,2.61,0,0,1-.27-.06l-.28-.08-.28-.08-.14,0-.14,0-.56-.2-.14-.05-.14,0-.28-.12-.28-.12-.14-.06L48,8.68l-.56-.27-.14-.07-.14-.08-.27-.16-.27-.16-.14-.08-.13-.08-.52-.35-.13-.08-.12-.1-.24-.18-.48-.36c-.61-.5-1.18-1-1.72-1.45S42,4.39,41.52,4a14,14,0,0,0-1.46-.93,7.59,7.59,0,0,0-2.36-.84A6.53,6.53,0,0,0,37,2.17h-.25l.24,0a6.78,6.78,0,0,1,.71,0,6.57,6.57,0,0,1,1.11.14l.68.18c.23.08.48.16.73.27a11.25,11.25,0,0,1,1.61.83c.55.34,1.12.73,1.69,1.16s1.17.9,1.78,1.37l.46.33.24.17.12.09.12.08.5.32.12.08L47,7.2l.26.15.26.15.13.08.13.07.53.26.13.07.13.06.27.12.26.11.13.06.13.05.53.2.13.05.13,0,.26.09.26.08.25.08.51.14a18,18,0,0,0,3.69.52l.76,0,.69,0a5.53,5.53,0,0,0,.59,0l.5,0Z"/><path class="cls-1" d="M.42,2.67a2.62,2.62,0,0,0-.15.73,3.21,3.21,0,0,0,0,.87,4,4,0,0,0,.85,1.84,6,6,0,0,0,.78.81,11.4,11.4,0,0,0,.94.69A12.45,12.45,0,0,0,5,8.69a13.87,13.87,0,0,0,2.36.69,16.44,16.44,0,0,0,2.38.29,20.33,20.33,0,0,0,4.09-.25c.56-.06,1.19-.15,1.87-.28s1.4-.3,2.14-.5A31.27,31.27,0,0,0,22.38,7c.74-.33,1.46-.69,2.13-1.06l.5-.28.48-.29.9-.56c1.15-.73,2.14-1.32,2.82-1.71.93-.53,1.83-1,2.66-1.41A12.46,12.46,0,0,1,34.13.82a2.86,2.86,0,0,1,1.53,0c.35.11.5.28.55.24s0-.07-.06-.17a1.08,1.08,0,0,0-.36-.34,2.52,2.52,0,0,0-.33-.15c-.13,0-.27-.07-.42-.09a3.88,3.88,0,0,0-1,0A9.83,9.83,0,0,0,31.59,1a25.39,25.39,0,0,0-2.75,1.39c-.7.4-1.69,1-2.83,1.77l-.88.58c-.15.1-.3.2-.46.29l-.48.29c-.65.38-1.34.76-2.05,1.11a31.88,31.88,0,0,1-4.39,1.79c-.73.24-1.43.43-2.09.59s-1.29.28-1.84.37a21.22,21.22,0,0,1-4,.06A15.41,15.41,0,0,1,7.49,8.9a13.58,13.58,0,0,1-2.26-.74,11.15,11.15,0,0,1-2-1.09A6.34,6.34,0,0,1,1.7,5.68,3.25,3.25,0,0,1,1,4.16a3.22,3.22,0,0,1,0-.69,2.21,2.21,0,0,1,.12-.56,2.64,2.64,0,0,1,.76-1.14,3.36,3.36,0,0,1,.54-.39A3.37,3.37,0,0,1,3,1.13,2.51,2.51,0,0,1,3.61,1a1.91,1.91,0,0,1,.54.05,1.44,1.44,0,0,1,.8.5.94.94,0,0,1,.24.69.4.4,0,0,1-.12.22L5,2.57l-.06,0-.06,0a1.06,1.06,0,0,1-.23.05H4.43c-.11,0-.17,0-.17,0s0,.07.14.11a.8.8,0,0,0,.2.06,1.28,1.28,0,0,0,.29,0H5l.09,0a.7.7,0,0,0,.2-.08.75.75,0,0,0,.32-.41,1.06,1.06,0,0,0,0-.56,1.74,1.74,0,0,0-.23-.55A2.06,2.06,0,0,0,4.33.48,2.55,2.55,0,0,0,3.59.37a2.48,2.48,0,0,0-.76.1,3.51,3.51,0,0,0-.74.28,3.37,3.37,0,0,0-.69.47A3.31,3.31,0,0,0,.42,2.67Z"/><path class="cls-1" d="M14.22,9.36l.94.08.5,0,.6,0H17.7A17.32,17.32,0,0,0,21.39,9l.51-.13.26-.08.25-.08.27-.09.13,0,.13,0,.52-.2.13,0,.13-.06L24,8.06,24.25,8l.13-.06.13-.07L25,7.55l.13-.06.13-.08.26-.15.26-.15L26,7,26.07,7l.5-.32.12-.08.12-.08.24-.17L27.51,6c.61-.46,1.2-.93,1.78-1.36A19.79,19.79,0,0,1,31,3.44a11.17,11.17,0,0,1,1.6-.83c.25-.11.5-.19.74-.27A6.9,6.9,0,0,1,34,2.16,6.33,6.33,0,0,1,35.12,2a4.71,4.71,0,0,1,.7,0l.24,0h-.24l-.69.08A7.66,7.66,0,0,0,32.77,3a13.42,13.42,0,0,0-1.46.93c-.5.36-1,.78-1.57,1.24s-1.11,1-1.72,1.44c-.15.13-.31.25-.47.37l-.25.18-.12.09-.13.09-.52.34-.13.09-.13.08L26,8l-.27.16-.14.07-.14.07-.56.28-.14.07-.14.06-.28.12L24,9,23.9,9l-.14.05-.56.19-.14.05-.14,0-.28.08-.28.07-.27.07-.54.12-.27.05-.27,0-.52.07L20,9.89l-.25,0-.24,0H17.7l-.78-.07-.69-.09c-.21,0-.41-.06-.59-.09l-.5-.1Z"/></g></g></svg>